<svg width="25" height="25" viewBox="0 0 25 25" fill="none" xmlns="http://www.w3.org/2000/svg">
<path d="M1.04566 0C0.466189 0 0 0.522461 0 1.17188C0 1.82129 0.466189 2.34375 1.04566 2.34375H3.31561L5.94282 17.7979C6.03868 18.3496 6.47001 18.75 6.97106 18.75H21.2617C21.8412 18.75 22.3074 18.2275 22.3074 17.5781C22.3074 16.9287 21.8412 16.4062 21.2617 16.4062H7.83808L7.4416 14.0625H21.253C21.876 14.0625 22.425 13.5986 22.5949 12.9248L24.9477 3.5498C25.196 2.55371 24.5294 1.5625 23.6057 1.5625H5.31543L5.21086 0.952148C5.11501 0.400391 4.68368 0 4.18263 0H1.04566ZM7.66816 25C8.82274 25 9.75948 23.9502 9.75948 22.6562C9.75948 21.3623 8.82274 20.3125 7.66816 20.3125C6.51358 20.3125 5.57684 21.3623 5.57684 22.6562C5.57684 23.9502 6.51358 25 7.66816 25ZM22.3074 22.6562C22.3074 21.3623 21.3706 20.3125 20.2161 20.3125C19.0615 20.3125 18.1247 21.3623 18.1247 22.6562C18.1247 23.9502 19.0615 25 20.2161 25C21.3706 25 22.3074 23.9502 22.3074 22.6562Z" fill="black"/>
</svg>
