<svg width="22" height="21" viewBox="0 0 22 21" fill="none" xmlns="http://www.w3.org/2000/svg">
<path d="M12.4017 2.16404C12.4017 1.32242 11.676 0.642456 10.7778 0.642456C9.87955 0.642456 9.15385 1.32242 9.15385 2.16404V9.01118H1.84616C0.947923 9.01118 0.222229 9.69114 0.222229 10.5328C0.222229 11.3744 0.947923 12.0544 1.84616 12.0544H9.15385V18.9015C9.15385 19.7431 9.87955 20.4231 10.7778 20.4231C11.676 20.4231 12.4017 19.7431 12.4017 18.9015V12.0544H19.7094C20.6076 12.0544 21.3333 11.3744 21.3333 10.5328C21.3333 9.69114 20.6076 9.01118 19.7094 9.01118H12.4017V2.16404Z" fill="black"/>
</svg>
