<svg width="100" height="100" viewBox="0 0 100 100" fill="none" xmlns="http://www.w3.org/2000/svg">
<path d="M14.2857 0C6.40625 0 0 6.40625 0 14.2857V85.7143C0 93.5938 6.40625 100 14.2857 100H85.7143C93.5938 100 100 93.5938 100 85.7143V14.2857C100 6.40625 93.5938 0 85.7143 0H14.2857ZM75.2232 39.5089L46.6518 68.0804C44.5536 70.1786 41.1607 70.1786 39.0848 68.0804L24.7991 53.7946C22.7009 51.6964 22.7009 48.3036 24.7991 46.2277C26.8973 44.1518 30.2902 44.1295 32.3661 46.2277L42.8571 56.7188L67.6339 31.9196C69.7321 29.8214 73.125 29.8214 75.2009 31.9196C77.2768 34.0179 77.2991 37.4107 75.2009 39.4866L75.2232 39.5089Z" fill="#26E338"/>
</svg>
