<svg width="793" height="40" viewBox="0 0 793 40" fill="none" xmlns="http://www.w3.org/2000/svg">
<path d="M30 3.75C30 1.67969 28.6562 0 27 0H21C19.3438 0 18 1.67969 18 3.75V7.5H14V1.875C14 0.835938 13.3313 0 12.5 0C11.6687 0 11 0.835938 11 1.875V7.5H7V1.875C7 0.835938 6.33125 0 5.5 0C4.66875 0 4 0.835938 4 1.875V7.5H3C1.34375 7.5 0 9.17969 0 11.25V18.75V36.25C0 38.3203 1.34375 40 3 40H19H21H27H37C38.6562 40 40 38.3203 40 36.25V18.75C40 16.6797 38.6562 15 37 15H30V3.75ZM36 28.75V31.25C36 31.9375 35.55 32.5 35 32.5H33C32.45 32.5 32 31.9375 32 31.25V28.75C32 28.0625 32.45 27.5 33 27.5H35C35.55 27.5 36 28.0625 36 28.75ZM15 32.5H13C12.45 32.5 12 31.9375 12 31.25V28.75C12 28.0625 12.45 27.5 13 27.5H15C15.55 27.5 16 28.0625 16 28.75V31.25C16 31.9375 15.55 32.5 15 32.5ZM8 31.25C8 31.9375 7.55 32.5 7 32.5H5C4.45 32.5 4 31.9375 4 31.25V28.75C4 28.0625 4.45 27.5 5 27.5H7C7.55 27.5 8 28.0625 8 28.75V31.25ZM35 20C35.55 20 36 20.5625 36 21.25V23.75C36 24.4375 35.55 25 35 25H33C32.45 25 32 24.4375 32 23.75V21.25C32 20.5625 32.45 20 33 20H35ZM16 13.75V16.25C16 16.9375 15.55 17.5 15 17.5H13C12.45 17.5 12 16.9375 12 16.25V13.75C12 13.0625 12.45 12.5 13 12.5H15C15.55 12.5 16 13.0625 16 13.75ZM7 12.5C7.55 12.5 8 13.0625 8 13.75V16.25C8 16.9375 7.55 17.5 7 17.5H5C4.45 17.5 4 16.9375 4 16.25V13.75C4 13.0625 4.45 12.5 5 12.5H7ZM16 23.75C16 24.4375 15.55 25 15 25H13C12.45 25 12 24.4375 12 23.75V21.25C12 20.5625 12.45 20 13 20H15C15.55 20 16 20.5625 16 21.25V23.75ZM7 25H5C4.45 25 4 24.4375 4 23.75V21.25C4 20.5625 4.45 20 5 20H7C7.55 20 8 20.5625 8 21.25V23.75C8 24.4375 7.55 25 7 25ZM26 21.25V23.75C26 24.4375 25.55 25 25 25H23C22.45 25 22 24.4375 22 23.75V21.25C22 20.5625 22.45 20 23 20H25C25.55 20 26 20.5625 26 21.25ZM25 5C25.55 5 26 5.5625 26 6.25V8.75C26 9.4375 25.55 10 25 10H23C22.45 10 22 9.4375 22 8.75V6.25C22 5.5625 22.45 5 23 5H25ZM26 13.75V16.25C26 16.9375 25.55 17.5 25 17.5H23C22.45 17.5 22 16.9375 22 16.25V13.75C22 13.0625 22.45 12.5 23 12.5H25C25.55 12.5 26 13.0625 26 13.75Z" fill="#00288E"/>
<path d="M373.368 12.5714H376.25V17.9286H370.087L371.749 13.6931C372.012 13.0179 372.652 12.5714 373.368 12.5714ZM378.875 17.9286V12.5714H383.316C383.846 12.5714 384.349 12.817 384.683 13.2411L388.358 17.9286H378.875ZM392.886 17.9844L387.417 11.0089C386.422 9.73661 384.913 9 383.316 9H373.368C371.219 9 369.288 10.3337 368.495 12.365L366.22 18.1741C364.919 18.6987 364 19.9877 364 21.5V27.75C364 28.7377 364.782 29.5357 365.75 29.5357H367.571C367.987 32.0692 370.147 34 372.75 34C375.353 34 377.513 32.0692 377.929 29.5357H385.071C385.487 32.0692 387.647 34 390.25 34C392.853 34 395.013 32.0692 395.429 29.5357H397.25C398.218 29.5357 399 28.7377 399 27.75V25.0714C399 21.433 396.331 18.4308 392.886 17.9844ZM392.727 29.5357C392.366 30.5737 391.393 31.3214 390.25 31.3214C389.107 31.3214 388.134 30.5737 387.773 29.5357C387.674 29.2567 387.625 28.9554 387.625 28.6429C387.625 27.1641 388.801 25.9643 390.25 25.9643C391.699 25.9643 392.875 27.1641 392.875 28.6429C392.875 28.9554 392.82 29.2567 392.727 29.5357ZM372.75 31.3214C371.607 31.3214 370.634 30.5737 370.273 29.5357C370.174 29.2567 370.125 28.9554 370.125 28.6429C370.125 27.1641 371.301 25.9643 372.75 25.9643C374.199 25.9643 375.375 27.1641 375.375 28.6429C375.375 28.9554 375.32 29.2567 375.227 29.5357C374.866 30.5737 373.893 31.3214 372.75 31.3214Z" fill="#BC0000"/>
<line x1="395" y1="37" x2="766" y2="37" stroke="#959595" stroke-width="6" stroke-dasharray="12 12"/>
<path d="M792.989 19.957C792.989 21.363 791.869 22.4644 790.6 22.4644H788.211L788.263 34.9775C788.278 37.7504 786.135 40 783.485 40H759.564C756.928 40 754.786 37.7583 754.786 35.001V22.4644H752.389C751.045 22.4644 750 21.3708 750 19.957C750 19.2541 750.224 18.6292 750.747 18.0824L769.889 0.624878C770.412 0.0781097 771.009 0 771.532 0C772.054 0 772.652 0.15622 773.1 0.546768L792.167 18.0824C792.765 18.6292 793.063 19.2541 792.989 19.957ZM776.28 17.4966C776.28 14.7393 774.137 12.4976 771.502 12.4976C768.866 12.4976 766.724 14.7393 766.724 17.4966C766.724 20.2539 768.866 22.4956 771.502 22.4956C774.137 22.4956 776.28 20.2539 776.28 17.4966ZM769.113 24.9951C765.813 24.9951 763.14 27.7914 763.14 31.2439C763.14 31.9313 763.678 32.4937 764.335 32.4937H778.669C779.326 32.4937 779.864 31.9313 779.864 31.2439C779.864 27.7914 777.191 24.9951 773.891 24.9951H769.113Z" fill="#219653"/>
<path d="M36.5 37L395 37" stroke="black" stroke-width="6"/>
</svg>
